<svg xmlns="http://www.w3.org/2000/svg" viewBox="0 0 512 512">
  <!-- Saw: a circular blade around a circuit-heart, void aesthetic -->
  <defs>
    <radialGradient id="glow" cx="50%" cy="50%" r="50%">
      <stop offset="0%" stop-color="#3a0a0a" stop-opacity="1"/>
      <stop offset="62%" stop-color="#1a080c" stop-opacity="0.85"/>
      <stop offset="100%" stop-color="#050508" stop-opacity="0"/>
    </radialGradient>
    <linearGradient id="blade" x1="0" y1="0" x2="1" y2="1">
      <stop offset="0%" stop-color="#e04a3a"/>
      <stop offset="55%" stop-color="#c9a227"/>
      <stop offset="100%" stop-color="#8f6fd4"/>
    </linearGradient>
  </defs>
  <rect width="512" height="512" fill="#050508"/>
  <circle cx="256" cy="256" r="240" fill="url(#glow)"/>

  <!-- blade ring with teeth -->
  <g id="teeth">
    <!-- generated teeth: 28 teeth around r=170 -->
  </g>
  <g fill="url(#blade)">
    <g id="ring">
      <circle cx="256" cy="256" r="176" fill="none" stroke="url(#blade)" stroke-width="10"/>
    </g>
  </g>
  <g stroke="url(#blade)" stroke-width="9" fill="none"><path d="M432.0 256.0 L459.0 276.4"/><path d="M427.6 295.2 L449.4 321.0"/><path d="M414.6 332.4 L430.0 362.4"/><path d="M393.6 365.7 L402.0 398.5"/><path d="M365.7 393.6 L366.6 427.4"/><path d="M332.4 414.6 L325.7 447.7"/><path d="M295.2 427.6 L281.3 458.4"/><path d="M256.0 432.0 L235.6 459.0"/><path d="M216.8 427.6 L191.0 449.4"/><path d="M179.6 414.6 L149.6 430.0"/><path d="M146.3 393.6 L113.5 402.0"/><path d="M118.4 365.7 L84.6 366.6"/><path d="M97.4 332.4 L64.3 325.7"/><path d="M84.4 295.2 L53.6 281.3"/><path d="M80.0 256.0 L53.0 235.6"/><path d="M84.4 216.8 L62.6 191.0"/><path d="M97.4 179.6 L82.0 149.6"/><path d="M118.4 146.3 L110.0 113.5"/><path d="M146.3 118.4 L145.4 84.6"/><path d="M179.6 97.4 L186.3 64.3"/><path d="M216.8 84.4 L230.7 53.6"/><path d="M256.0 80.0 L276.4 53.0"/><path d="M295.2 84.4 L321.0 62.6"/><path d="M332.4 97.4 L362.4 82.0"/><path d="M365.7 118.4 L398.5 110.0"/><path d="M393.6 146.3 L427.4 145.4"/><path d="M414.6 179.6 L447.7 186.3"/><path d="M427.6 216.8 L458.4 230.7"/></g>

  <!-- circuit traces from center -->
  <g stroke="#1c2430" stroke-width="3" fill="none" opacity="0.9">
    <path d="M256 256 L 256 130"/>
    <path d="M256 256 L 368 200"/>
    <path d="M256 256 L 340 356"/>
    <path d="M256 256 L 160 340"/>
    <path d="M256 256 L 148 190"/>
  </g>
  <g fill="#93a1b3">
    <circle cx="256" cy="130" r="7"/>
    <circle cx="368" cy="200" r="7"/>
    <circle cx="340" cy="356" r="7"/>
    <circle cx="160" cy="340" r="7"/>
    <circle cx="148" cy="190" r="7"/>
  </g>

  <!-- center: the heart-node -->
  <circle cx="256" cy="256" r="52" fill="#0a0a12" stroke="#e04a3a" stroke-width="6"/>
  <circle cx="256" cy="256" r="18" fill="#e04a3a"/>
  <circle cx="256" cy="256" r="30" fill="none" stroke="#c9a227" stroke-width="2" opacity="0.7"/>

  
  
</svg>